<svg xmlns="http://www.w3.org/2000/svg" xmlns:xlink="http://www.w3.org/1999/xlink" viewBox="0 0 500 500"><defs><clipPath id="freepik--clip-path--inject-327"><path d="M336.67,197.09s13.62-15.61,33.49-15.61c0,0,.66-12.13,14.22-14.75s16.19,9.49,16.19,9.49,10-5.31,23.48,0,10.72,20.83,10.72,20.83,38.82-1.27,45.48,5.84H305.8S309.32,194.19,336.67,197.09Z" style="fill:none"></path></clipPath><clipPath id="freepik--clip-path-2--inject-327"><path d="M66.45,103.25S80.07,87.64,99.93,87.64c0,0,.66-12.13,14.22-14.74s16.2,9.48,16.2,9.48,10-5.31,23.47,0,10.73,20.83,10.73,20.83,38.81-1.27,45.47,5.85H35.57S39.09,100.35,66.45,103.25Z" style="fill:none"></path></clipPath><clipPath id="freepik--clip-path-3--inject-327"><path d="M379.41,303.69s-10.87-12.45-26.71-12.45c0,0-.53-9.67-11.34-11.76s-12.92,7.57-12.92,7.57-8-4.24-18.72,0-8.56,16.61-8.56,16.61-31-1-36.27,4.67H404S401.22,301.38,379.41,303.69Z" style="fill:none"></path></clipPath><clipPath id="freepik--clip-path-4--inject-327"><path d="M134.27,271.89s-10.87-12.45-26.71-12.45c0,0-.53-9.68-11.34-11.76s-12.92,7.56-12.92,7.56-8-4.23-18.72,0S56,271.86,56,271.86s-31-1-36.27,4.66H158.89S156.08,269.58,134.27,271.89Z" style="fill:none"></path></clipPath><clipPath id="freepik--clip-path-5--inject-327"><path d="M168.65,221.64s6.46-7.4,15.87-7.4a7.85,7.85,0,0,1,6.73-7c6.43-1.24,7.68,4.49,7.68,4.49a14,14,0,0,1,11.12,0c6.37,2.51,5.08,9.87,5.08,9.87s18.39-.61,21.54,2.77H154S155.7,220.26,168.65,221.64Z" style="fill:none"></path></clipPath><clipPath id="freepik--clip-path-6--inject-327"><path d="M250,85.15c-35.78,3.61-75.77,11.65-75.77,11.65l-5.33-1.38c25.42-10,81.1-24.69,81.1-24.69s55.68,14.7,81.1,24.69l-5.33,1.38S285.78,88.76,250,85.15Z" style="fill:none"></path></clipPath><clipPath id="freepik--clip-path-7--inject-327"><path d="M280.5,118.29s93.37,14.76,186.15,34.22a9.32,9.32,0,0,1-6.66,3c-4.58.27-87-6.38-167.67-10.13Z" style="fill:none"></path></clipPath><clipPath id="freepik--clip-path-8--inject-327"><path d="M219.5,118.29s-93.37,14.76-186.15,34.22a9.32,9.32,0,0,0,6.66,3c4.58.27,87-6.38,167.67-10.13Z" style="fill:none"></path></clipPath><clipPath id="freepik--clip-path-9--inject-327"><path d="M291.15,153.46,250,157.39l-41.15-3.93S197,171,197.28,175.76,202,185.89,250,185.89s52.48-5.38,52.72-10.13S291.15,153.46,291.15,153.46Z" style="fill:none"></path></clipPath><clipPath id="freepik--clip-path-10--inject-327"><path d="M250,97.73h0a40.21,40.21,0,0,0-33,17.18c-18.91,27.18-20,71,33,71s51.93-43.8,33-71A40.21,40.21,0,0,0,250,97.73Z" style="fill:none"></path></clipPath><clipPath id="freepik--clip-path-11--inject-327"><path d="M283.16,350.56s20.84-11.37,25-12.92l4.22-1.54s1.85-4.48,3.7-5c0,0-3.17-14-3.17-18.2V297.73l-.92-4s6.2-5.93,11.87-3.56l2.77,5.41a10.85,10.85,0,0,1,6.85,6.72c2.11,5.54,9,26,10.29,35.15s-60.66,52.94-60.66,52.94Z" style="fill:none"></path></clipPath><clipPath id="freepik--clip-path-12--inject-327"><path d="M216.84,350.56S196,339.19,191.79,337.64l-4.22-1.54s-1.85-4.48-3.7-5c0,0,3.17-14,3.17-18.2V297.73l.92-4s-6.2-5.93-11.87-3.56l-2.77,5.41a10.85,10.85,0,0,0-6.85,6.72c-2.11,5.54-9,26-10.29,35.15s60.66,52.94,60.66,52.94Z" style="fill:none"></path></clipPath><clipPath id="freepik--clip-path-13--inject-327"><path d="M207.37,343.15,229.15,353s4.75,2.29,18,2.87,25-5.31,25-5.31l19-6.12s5.88,29.11-2.78,60.76l3.29,45.36s-46.56,8.7-89.23,0l4.47-43.78S201.7,365.53,207.37,343.15Z" style="fill:none"></path></clipPath></defs><g id="freepik--background-simple--inject-327"><g id="freepik--background-simple--inject-327"><path d="M291.67,450.56s-46.72,9.47-89.23,0c-26-5.79-80.76-19.52-93.68-50.64s49.3-57.67,18.72-89.24C114.3,297.07,51,279.1,54.56,190.76S150.86,48.57,279.74,51,483,170.56,433.15,228.27s-71.3,57.88-48.7,104.88S375.67,437.11,291.67,450.56Z" style="fill:#FFC100"></path><path d="M291.67,450.56s-46.72,9.47-89.23,0c-26-5.79-80.76-19.52-93.68-50.64s49.3-57.67,18.72-89.24C114.3,297.07,51,279.1,54.56,190.76S150.86,48.57,279.74,51,483,170.56,433.15,228.27s-71.3,57.88-48.7,104.88S375.67,437.11,291.67,450.56Z" style="fill:#fff;opacity:0.7000000000000001;isolation:isolate"></path></g></g><g id="freepik--Clouds--inject-327"><g id="freepik--clouds--inject-327"><g style="clip-path:url(#freepik--clip-path--inject-327)"><path d="M336.67,197.09s13.62-15.61,33.49-15.61c0,0,.66-12.13,14.22-14.75s16.19,9.49,16.19,9.49,10-5.31,23.48,0,10.72,20.83,10.72,20.83,38.82-1.27,45.48,5.84H305.8S309.32,194.19,336.67,197.09Z" style="fill:none;stroke:#263238;stroke-linecap:round;stroke-linejoin:round;opacity:0.5;isolation:isolate"></path></g><path d="M336.67,197.09s13.62-15.61,33.49-15.61c0,0,.66-12.13,14.22-14.75s16.19,9.49,16.19,9.49,10-5.31,23.48,0,10.72,20.83,10.72,20.83,38.82-1.27,45.48,5.84H305.8S309.32,194.19,336.67,197.09Z" style="fill:none;stroke:#263238;stroke-linecap:round;stroke-linejoin:round"></path><g style="clip-path:url(#freepik--clip-path-2--inject-327)"><path d="M66.45,103.25S80.07,87.64,99.93,87.64c0,0,.66-12.13,14.22-14.74s16.2,9.48,16.2,9.48,10-5.31,23.47,0,10.73,20.83,10.73,20.83,38.81-1.27,45.47,5.85H35.57S39.09,100.35,66.45,103.25Z" style="fill:none;stroke:#263238;stroke-linecap:round;stroke-linejoin:round;opacity:0.5;isolation:isolate"></path></g><path d="M66.45,103.25S80.07,87.64,99.93,87.64c0,0,.66-12.13,14.22-14.74s16.2,9.48,16.2,9.48,10-5.31,23.47,0,10.73,20.83,10.73,20.83,38.81-1.27,45.47,5.85H35.57S39.09,100.35,66.45,103.25Z" style="fill:none;stroke:#263238;stroke-linecap:round;stroke-linejoin:round"></path><g style="clip-path:url(#freepik--clip-path-3--inject-327)"><path d="M379.41,303.69s-10.87-12.45-26.71-12.45c0,0-.53-9.67-11.34-11.76s-12.92,7.57-12.92,7.57-8-4.24-18.72,0-8.56,16.61-8.56,16.61-31-1-36.27,4.67H404S401.22,301.38,379.41,303.69Z" style="fill:none;stroke:#263238;stroke-linecap:round;stroke-linejoin:round;opacity:0.5;isolation:isolate"></path></g><path d="M379.41,303.69s-10.87-12.45-26.71-12.45c0,0-.53-9.67-11.34-11.76s-12.92,7.57-12.92,7.57-8-4.24-18.72,0-8.56,16.61-8.56,16.61-31-1-36.27,4.67H404S401.22,301.38,379.41,303.69Z" style="fill:none;stroke:#263238;stroke-linecap:round;stroke-linejoin:round"></path><g style="clip-path:url(#freepik--clip-path-4--inject-327)"><path d="M134.27,271.89s-10.87-12.45-26.71-12.45c0,0-.53-9.68-11.34-11.76s-12.92,7.56-12.92,7.56-8-4.23-18.72,0S56,271.86,56,271.86s-31-1-36.27,4.66H158.89S156.08,269.58,134.27,271.89Z" style="fill:none;stroke:#263238;stroke-linecap:round;stroke-linejoin:round;opacity:0.5;isolation:isolate"></path></g><path d="M134.27,271.89s-10.87-12.45-26.71-12.45c0,0-.53-9.68-11.34-11.76s-12.92,7.56-12.92,7.56-8-4.23-18.72,0S56,271.86,56,271.86s-31-1-36.27,4.66H158.89S156.08,269.58,134.27,271.89Z" style="fill:none;stroke:#263238;stroke-linecap:round;stroke-linejoin:round"></path><g style="clip-path:url(#freepik--clip-path-5--inject-327)"><path d="M168.65,221.64s6.46-7.4,15.87-7.4a7.85,7.85,0,0,1,6.73-7c6.43-1.24,7.68,4.49,7.68,4.49a14,14,0,0,1,11.12,0c6.37,2.51,5.08,9.87,5.08,9.87s18.39-.61,21.54,2.77H154S155.7,220.26,168.65,221.64Z" style="fill:none;stroke:#263238;stroke-linecap:round;stroke-linejoin:round;opacity:0.5;isolation:isolate"></path></g><path d="M168.65,221.64s6.46-7.4,15.87-7.4a7.85,7.85,0,0,1,6.73-7c6.43-1.24,7.68,4.49,7.68,4.49a14,14,0,0,1,11.12,0c6.37,2.51,5.08,9.87,5.08,9.87s18.39-.61,21.54,2.77H154S155.7,220.26,168.65,221.64Z" style="fill:none;stroke:#263238;stroke-linecap:round;stroke-linejoin:round"></path></g></g><g id="freepik--Aircraft--inject-327"><g id="freepik--Airplane--inject-327"><path d="M250,85.15c-35.78,3.61-75.77,11.65-75.77,11.65l-5.33-1.38c25.42-10,81.1-24.69,81.1-24.69s55.68,14.7,81.1,24.69l-5.33,1.38S285.78,88.76,250,85.15Z" style="fill:#FFC100"></path><g style="clip-path:url(#freepik--clip-path-6--inject-327)"><path d="M329.65,95.8l-3.88,1s-40-8-75.77-11.65c-35.78,3.6-75.77,11.65-75.77,11.65l-3.88-1C201,85.91,250,73.89,250,73.89S299,85.91,329.65,95.8Z" style="fill-opacity:0.7000000000000001;opacity:0.2;isolation:isolate"></path></g><path d="M250,85.15c-35.78,3.61-75.77,11.65-75.77,11.65l-5.33-1.38c25.42-10,81.1-24.69,81.1-24.69s55.68,14.7,81.1,24.69l-5.33,1.38S285.78,88.76,250,85.15Z" style="fill:none;stroke:#263238;stroke-linecap:round;stroke-linejoin:round"></path><path d="M315.87,91.58c3.57,1.15,6.91,2.3,9.9,3.41" style="fill:none;stroke:#263238;stroke-linecap:round;stroke-linejoin:round"></path><path d="M257.41,75.65c12.14,2.94,36.81,9.1,56,15.14" style="fill:none;stroke:#263238;stroke-linecap:round;stroke-linejoin:round"></path><path d="M196.15,88.16c18.54-5.39,45-12.87,53.85-14.27" style="fill:none;stroke:#263238;stroke-linecap:round;stroke-linejoin:round"></path><path d="M182.57,92.14l9.19-2.7" style="fill:none;stroke:#263238;stroke-linecap:round;stroke-linejoin:round"></path><path d="M176.89,93.83l1.88-.56" style="fill:none;stroke:#263238;stroke-linecap:round;stroke-linejoin:round"></path><path d="M280.5,118.29s93.37,14.76,186.15,34.22a9.32,9.32,0,0,1-6.66,3c-4.58.27-87-6.38-167.67-10.13Z" style="fill:#FFC100"></path><g style="clip-path:url(#freepik--clip-path-7--inject-327)"><path d="M285.64,130.06l6.67,15.28c80.72,3.74,163.1,10.4,167.68,10.12a11.47,11.47,0,0,0,3.06-.61,5.19,5.19,0,0,0-2.87-1.79c-14-3.28-82.28-18.68-173.68-29.35Z" style="fill-opacity:0.7000000000000001;opacity:0.2;isolation:isolate"></path></g><path d="M280.5,118.29s93.37,14.76,186.15,34.22a9.32,9.32,0,0,1-6.66,3c-4.58.27-87-6.38-167.67-10.13Z" style="fill:none;stroke:#263238;stroke-linecap:round;stroke-linejoin:round"></path><path d="M306.33,146s5.13-3.94,6.65-4.95.83,11.66-1.94,12.61S306.33,146,306.33,146Z" style="fill:#FFC100;stroke:#263238;stroke-linecap:round;stroke-linejoin:round"></path><path d="M365.41,149.35s3.6-3.82,4.57-3.71-.68,10.19-2.28,10.42S365.41,149.35,365.41,149.35Z" style="fill:#FFC100;stroke:#263238;stroke-linecap:round;stroke-linejoin:round"></path><path d="M219.5,118.29s-93.37,14.76-186.15,34.22a9.32,9.32,0,0,0,6.66,3c4.58.27,87-6.38,167.67-10.13Z" style="fill:#FFC100"></path><g style="clip-path:url(#freepik--clip-path-8--inject-327)"><path d="M214.36,130.06l-6.67,15.28C127,149.08,44.59,155.74,40,155.46a11.47,11.47,0,0,1-3.06-.61,5.19,5.19,0,0,1,2.87-1.79c14-3.28,82.28-18.68,173.68-29.35Z" style="fill-opacity:0.7000000000000001;opacity:0.2;isolation:isolate"></path></g><path d="M219.5,118.29s-93.37,14.76-186.15,34.22a9.32,9.32,0,0,0,6.66,3c4.58.27,87-6.38,167.67-10.13Z" style="fill:none;stroke:#263238;stroke-linecap:round;stroke-linejoin:round"></path><path d="M193.67,146s-5.13-3.94-6.65-4.95-.83,11.66,1.94,12.61S193.67,146,193.67,146Z" style="fill:#FFC100;stroke:#263238;stroke-linecap:round;stroke-linejoin:round"></path><path d="M134.59,149.35s-3.6-3.82-4.57-3.71.68,10.19,2.28,10.42S134.59,149.35,134.59,149.35Z" style="fill:#FFC100;stroke:#263238;stroke-linecap:round;stroke-linejoin:round"></path><path d="M298.63,129.64l-8.16-.92" style="fill:none;stroke:#263238;stroke-linecap:round;stroke-linejoin:round"></path><path d="M309.52,131l-6.82-.83" style="fill:none;stroke:#263238;stroke-linecap:round;stroke-linejoin:round"></path><path d="M438.24,150.23c-41-6.69-83-12.69-123.94-18.68" style="fill:none;stroke:#263238;stroke-linecap:round;stroke-linejoin:round"></path><path d="M447.84,151.73,443,151" style="fill:none;stroke:#263238;stroke-linecap:round;stroke-linejoin:round"></path><path d="M456.9,155.22c.41-.59.83-1.17,1.25-1.76l-5.06-.85" style="fill:none;stroke:#263238;stroke-linecap:round;stroke-linejoin:round"></path><circle cx="342.65" cy="149.9" r="16.87" transform="translate(-31 133.61) rotate(-21.13)" style="fill:#FFC100;stroke:#263238;stroke-linecap:round;stroke-linejoin:round"></circle><path d="M338.9,136.68A12.59,12.59,0,1,1,332,153.11,12.59,12.59,0,0,1,338.9,136.68Z" style="fill:#263238"></path><g style="opacity:0.5"><path d="M343.1,147.44s1.1-4.15,4.91-4.23" style="fill:none;stroke:#fff;stroke-linecap:round;stroke-linejoin:round"></path><path d="M341.53,151.83s-1.1,4.14-4.91,4.23" style="fill:none;stroke:#fff;stroke-linecap:round;stroke-linejoin:round"></path><path d="M344.5,150.42s4.15,1.1,4.24,4.91" style="fill:none;stroke:#fff;stroke-linecap:round;stroke-linejoin:round"></path><path d="M340.12,148.85s-4.15-1.1-4.23-4.91" style="fill:none;stroke:#fff;stroke-linecap:round;stroke-linejoin:round"></path><path d="M344.42,148.64s3.71-2.16,6.46.48" style="fill:none;stroke:#fff;stroke-linecap:round;stroke-linejoin:round"></path><path d="M340.21,150.63s-3.71,2.15-6.47-.48" style="fill:none;stroke:#fff;stroke-linecap:round;stroke-linejoin:round"></path><path d="M343.31,151.74s2.15,3.71-.48,6.46" style="fill:none;stroke:#fff;stroke-linecap:round;stroke-linejoin:round"></path><path d="M341.32,147.53s-2.16-3.71.47-6.47" style="fill:none;stroke:#fff;stroke-linecap:round;stroke-linejoin:round"></path><path d="M338,138.71s6.14-3.64,11.69.41c6.77,4.94,4.74,13.21,3,15.85" style="fill:none;stroke:#fff;stroke-linecap:round;stroke-linejoin:round"></path></g><circle cx="399.7" cy="157.11" r="15.25" style="fill:#FFC100;stroke:#263238;stroke-linecap:round;stroke-linejoin:round"></circle><circle cx="400.67" cy="155.72" r="11.39" transform="translate(-27.63 119.07) rotate(-16.35)" style="fill:#263238"></circle><g style="opacity:0.5"><path d="M400.12,154.89s1-3.75,4.44-3.83" style="fill:none;stroke:#fff;stroke-linecap:round;stroke-linejoin:round"></path><path d="M398.7,158.86s-1,3.75-4.44,3.83" style="fill:none;stroke:#fff;stroke-linecap:round;stroke-linejoin:round"></path><path d="M401.39,157.58s3.75,1,3.83,4.45" style="fill:none;stroke:#fff;stroke-linecap:round;stroke-linejoin:round"></path><path d="M397.43,156.17s-3.76-1-3.83-4.44" style="fill:none;stroke:#fff;stroke-linecap:round;stroke-linejoin:round"></path><path d="M401.31,156s3.36-1.94,5.85.44" style="fill:none;stroke:#fff;stroke-linecap:round;stroke-linejoin:round"></path><path d="M397.51,157.78s-3.36,1.94-5.85-.44" style="fill:none;stroke:#fff;stroke-linecap:round;stroke-linejoin:round"></path><path d="M400.31,158.78s1.95,3.36-.43,5.85" style="fill:none;stroke:#fff;stroke-linecap:round;stroke-linejoin:round"></path><path d="M398.51,155s-1.95-3.35.43-5.85" style="fill:none;stroke:#fff;stroke-linecap:round;stroke-linejoin:round"></path><path d="M395.51,147s5.55-3.3,10.57.37c6.12,4.47,4.28,11.95,2.69,14.33" style="fill:none;stroke:#fff;stroke-linecap:round;stroke-linejoin:round"></path></g><path d="M201.37,129.64l8.16-.92" style="fill:none;stroke:#263238;stroke-linecap:round;stroke-linejoin:round"></path><path d="M190.48,131l6.82-.83" style="fill:none;stroke:#263238;stroke-linecap:round;stroke-linejoin:round"></path><path d="M61.76,150.23c41-6.69,83-12.69,123.94-18.68" style="fill:none;stroke:#263238;stroke-linecap:round;stroke-linejoin:round"></path><path d="M52.16,151.73,57,151" style="fill:none;stroke:#263238;stroke-linecap:round;stroke-linejoin:round"></path><path d="M43.1,155.22c-.41-.59-.83-1.17-1.25-1.76l5.06-.85" style="fill:none;stroke:#263238;stroke-linecap:round;stroke-linejoin:round"></path><circle cx="157.37" cy="149.9" r="16.87" transform="translate(-54.03 200.36) rotate(-57.03)" style="fill:#FFC100;stroke:#263238;stroke-linecap:round;stroke-linejoin:round"></circle><circle cx="156.31" cy="148.35" r="12.59" transform="translate(-47.27 77.68) rotate(-24.36)" style="fill:#263238"></circle><g style="opacity:0.5"><path d="M156.9,147.44s-1.1-4.15-4.91-4.23" style="fill:none;stroke:#fff;stroke-linecap:round;stroke-linejoin:round"></path><path d="M158.47,151.83s1.1,4.14,4.91,4.23" style="fill:none;stroke:#fff;stroke-linecap:round;stroke-linejoin:round"></path><path d="M155.5,150.42s-4.15,1.1-4.24,4.91" style="fill:none;stroke:#fff;stroke-linecap:round;stroke-linejoin:round"></path><path d="M159.88,148.85s4.15-1.1,4.23-4.91" style="fill:none;stroke:#fff;stroke-linecap:round;stroke-linejoin:round"></path><path d="M155.58,148.64s-3.71-2.16-6.46.48" style="fill:none;stroke:#fff;stroke-linecap:round;stroke-linejoin:round"></path><path d="M159.79,150.63s3.71,2.15,6.47-.48" style="fill:none;stroke:#fff;stroke-linecap:round;stroke-linejoin:round"></path><path d="M156.69,151.74s-2.15,3.71.48,6.46" style="fill:none;stroke:#fff;stroke-linecap:round;stroke-linejoin:round"></path><path d="M158.68,147.53s2.16-3.71-.47-6.47" style="fill:none;stroke:#fff;stroke-linecap:round;stroke-linejoin:round"></path><path d="M162,138.71s-6.14-3.64-11.69.41c-6.77,4.94-4.74,13.21-3,15.85" style="fill:none;stroke:#fff;stroke-linecap:round;stroke-linejoin:round"></path></g><circle cx="100.3" cy="157.11" r="15.25" style="fill:#FFC100;stroke:#263238;stroke-linecap:round;stroke-linejoin:round"></circle><path d="M96.63,144.64a11.39,11.39,0,1,1-8.34,13.78A11.39,11.39,0,0,1,96.63,144.64Z" style="fill:#263238"></path><g style="opacity:0.5"><path d="M99.88,154.89s-1-3.75-4.44-3.83" style="fill:none;stroke:#fff;stroke-linecap:round;stroke-linejoin:round"></path><path d="M101.3,158.86s1,3.75,4.44,3.83" style="fill:none;stroke:#fff;stroke-linecap:round;stroke-linejoin:round"></path><path d="M98.61,157.58s-3.75,1-3.83,4.45" style="fill:none;stroke:#fff;stroke-linecap:round;stroke-linejoin:round"></path><path d="M102.57,156.17s3.76-1,3.83-4.44" style="fill:none;stroke:#fff;stroke-linecap:round;stroke-linejoin:round"></path><path d="M98.69,156s-3.36-1.94-5.85.44" style="fill:none;stroke:#fff;stroke-linecap:round;stroke-linejoin:round"></path><path d="M102.49,157.78s3.36,1.94,5.85-.44" style="fill:none;stroke:#fff;stroke-linecap:round;stroke-linejoin:round"></path><path d="M99.69,158.78s-2,3.36.43,5.85" style="fill:none;stroke:#fff;stroke-linecap:round;stroke-linejoin:round"></path><path d="M101.49,155s2-3.35-.43-5.85" style="fill:none;stroke:#fff;stroke-linecap:round;stroke-linejoin:round"></path><path d="M104.49,147s-5.55-3.3-10.57.37c-6.12,4.47-4.28,11.95-2.69,14.33" style="fill:none;stroke:#fff;stroke-linecap:round;stroke-linejoin:round"></path></g><path d="M249.86,73.07h.27a2.65,2.65,0,0,1,2.65,2.65V105.8h-5.57V75.72a2.65,2.65,0,0,1,2.65-2.65Z" style="fill:#FFC100;stroke:#263238;stroke-linecap:round;stroke-linejoin:round"></path><path d="M291.15,153.46,250,157.39l-41.15-3.93S197,171,197.28,175.76,202,185.89,250,185.89s52.48-5.38,52.72-10.13S291.15,153.46,291.15,153.46Z" style="fill:#FFC100"></path><g style="clip-path:url(#freepik--clip-path-9--inject-327)"><path d="M298.63,181h0c-5.56,2.74-18.55,4.85-48.63,4.85-27.55,0-40.76-1.77-47.06-4.18h0c-6.22-2.84,7.43-8,7.43-8s-2.6-3.9,1.42-9.06,79.49,1,79.49,1,.67,3.31-1.6,8.08C289.66,173.69,300.05,175.6,298.63,181Z" style="fill-opacity:0.7000000000000001;opacity:0.2;isolation:isolate"></path></g><path d="M291.15,153.46,250,157.39l-41.15-3.93S197,171,197.28,175.76,202,185.89,250,185.89s52.48-5.38,52.72-10.13S291.15,153.46,291.15,153.46Z" style="fill:none;stroke:#263238;stroke-linecap:round;stroke-linejoin:round"></path><path d="M250,97.73h0a40.21,40.21,0,0,0-33,17.18c-18.91,27.18-20,71,33,71s51.93-43.8,33-71A40.21,40.21,0,0,0,250,97.73Z" style="fill:#FFC100"></path><g style="clip-path:url(#freepik--clip-path-10--inject-327)"><path d="M287.77,171.86h0a11.8,11.8,0,0,1-2.47,2.71h0c-.84.66-2.26,1.82-4.06,3.34-7.11,4.94-17.29,8-31.2,8-17.33,0-28.88-4.68-35.91-11.94-4.73-6.66-7.31-13.13-3.74-18.24,3.86-5.53,33.64-20,39.91-20s37.56,17.61,40.21,19.58C292.7,157,291.55,166.29,287.77,171.86Z" style="fill-opacity:0.7000000000000001;opacity:0.2;isolation:isolate"></path></g><path d="M250,97.73h0a40.21,40.21,0,0,0-33,17.18c-18.91,27.18-20,71,33,71s51.93-43.8,33-71A40.21,40.21,0,0,0,250,97.73Z" style="fill:none;stroke:#263238;stroke-linecap:round;stroke-linejoin:round"></path><path d="M227.76,114.59A49.07,49.07,0,0,0,223,125.2c3.31-1.71,7.1-3.37,10-3.85a79.36,79.36,0,0,1,1.72-8C232.27,113.68,229.92,114.09,227.76,114.59Z" style="fill:#263238"></path><path d="M272.24,114.59c-2.16-.5-4.51-.91-7-1.24.71,2.57,1.29,5.44,1.72,8a37.79,37.79,0,0,1,10,3.85A49.14,49.14,0,0,0,272.24,114.59Z" style="fill:#263238"></path><path d="M263.86,113.18a116.11,116.11,0,0,0-12.78-.77v9.81c3.74-.19,8.95-1.24,14.54-1C265,118,264.42,115.28,263.86,113.18Z" style="fill:#263238"></path><path d="M278.06,125.74l4.44.92a48.13,48.13,0,0,0-5.88-10.86c-1-.35-2.16-.66-3.34-1A54,54,0,0,1,278.06,125.74Z" style="fill:#263238"></path><path d="M226.72,114.84a32.07,32.07,0,0,0-3.34,1s-3.31,3.58-5.88,10.86l4.44-.92A54,54,0,0,1,226.72,114.84Z" style="fill:#263238"></path><path d="M249.37,112.4a121.83,121.83,0,0,0-13.23.78c-.56,2.1-1.18,4.81-1.76,8,5.81-.24,11.22.9,15,1Z" style="fill:#263238"></path><path d="M250,174.91c-2.1-.15-7.84-.68-10.35-1.89l1.41,6a24.22,24.22,0,0,0,8.88,1.5l.06-.42.06.42a24.22,24.22,0,0,0,8.88-1.5l1.41-6C257.84,174.23,252.1,174.76,250,174.91Z" style="fill:#263238"></path><rect x="249.15" y="175.6" width="1.7" height="13.31" style="fill:#757575;stroke:#263238;stroke-linecap:round;stroke-linejoin:round"></rect><circle cx="250" cy="189.97" r="2.77" style="fill:#757575;stroke:#263238;stroke-linecap:round;stroke-linejoin:round"></circle><rect x="241.13" y="182.21" width="7.05" height="16.07" rx="1.45" style="fill:#263238"></rect><rect x="251.83" y="182.21" width="7.05" height="16.07" rx="1.45" style="fill:#263238"></rect><path d="M275.56,182.39s12.78-1.44,17.26-4.25l-1,3a80.75,80.75,0,0,1-18.65,3Z" style="fill:#263238"></path><path d="M224.44,182.39s-12.78-1.44-17.26-4.25l1,3a80.75,80.75,0,0,0,18.65,3Z" style="fill:#263238"></path><polygon points="289.66 190.76 288.23 190.76 288.23 181.21 289.66 180.88 289.66 190.76" style="fill:#757575;stroke:#263238;stroke-linecap:round;stroke-linejoin:round"></polygon><polygon points="281.17 190.76 279.74 190.76 279.74 182.43 281.17 182.25 281.17 190.76" style="fill:#757575;stroke:#263238;stroke-linecap:round;stroke-linejoin:round"></polygon><path d="M291.26,191.65a2.32,2.32,0,1,1-2.33-2.31h0A2.32,2.32,0,0,1,291.26,191.65Z" style="fill:#757575;stroke:#263238;stroke-linecap:round;stroke-linejoin:round"></path><path d="M282.77,191.65a2.32,2.32,0,1,1-2.33-2.31h0A2.33,2.33,0,0,1,282.77,191.65Z" style="fill:#757575;stroke:#263238;stroke-linecap:round;stroke-linejoin:round"></path><rect x="281.75" y="185.17" width="5.89" height="13.43" rx="1.12" style="fill:#263238"></rect><rect x="290.47" y="185.17" width="5.89" height="13.43" rx="1.12" style="fill:#263238"></rect><rect x="273.04" y="185.17" width="5.89" height="13.43" rx="1.12" style="fill:#263238"></rect><polygon points="210.34 190.76 211.77 190.76 211.77 181.21 210.34 180.88 210.34 190.76" style="fill:#757575;stroke:#263238;stroke-linecap:round;stroke-linejoin:round"></polygon><polygon points="218.83 190.76 220.26 190.76 220.26 182.43 218.83 182.25 218.83 190.76" style="fill:#757575;stroke:#263238;stroke-linecap:round;stroke-linejoin:round"></polygon><path d="M208.74,191.65a2.32,2.32,0,1,0,2.33-2.31h0A2.32,2.32,0,0,0,208.74,191.65Z" style="fill:#757575;stroke:#263238;stroke-linecap:round;stroke-linejoin:round"></path><path d="M217.23,191.65a2.32,2.32,0,1,0,2.33-2.31h0A2.33,2.33,0,0,0,217.23,191.65Z" style="fill:#757575;stroke:#263238;stroke-linecap:round;stroke-linejoin:round"></path><rect x="212.35" y="185.17" width="5.89" height="13.43" rx="1.12" style="fill:#263238"></rect><rect x="203.64" y="185.17" width="5.89" height="13.43" rx="1.12" style="fill:#263238"></rect><rect x="221.07" y="185.17" width="5.89" height="13.43" rx="1.12" style="fill:#263238"></rect><path d="M251.08,84.46V97.73" style="fill:none;stroke:#263238;stroke-linecap:round;stroke-linejoin:round"></path><path d="M251.08,76v3.79" style="fill:none;stroke:#263238;stroke-linecap:round;stroke-linejoin:round"></path></g></g><g id="freepik--Character--inject-327"><g id="freepik--character--inject-327"><path d="M317.75,291.48l-3.1,1.11a2.06,2.06,0,0,1-2.64-1.24h0l-25.68-71.82s.56-1.26,3.15-2.19a6,6,0,0,1,3.83-.3L319,288.85a2,2,0,0,1-1.14,2.59Z" style="fill:#263238"></path><path d="M293.31,217l16.84,47.08a6,6,0,0,0-3.83.31c-2.59.93-3.16,2.19-3.16,2.19L286.32,219.5s.57-1.26,3.16-2.19A6,6,0,0,1,293.31,217Z" style="fill:#FFC100;stroke:#263238;stroke-linecap:round;stroke-linejoin:round"></path><path d="M304.17,253.89l1.05,2.82" style="fill:none;stroke:#fff;stroke-linecap:round;stroke-linejoin:round"></path><path d="M291.14,218.93q5.81,15.6,11.63,31.19" style="fill:none;stroke:#fff;stroke-linecap:round;stroke-linejoin:round"></path><path d="M313.5,295.48s-2.48-8-4.56-9.26c-2.41-1.42-4.13-4.09-3.63-5.88.91-3.2-1.12-4.69.78-5.57,0,0,3.58,4.11,4.06,3.18,3.35-6.6,1.26-10.29,1.26-10.29,4.32-2.11,4.26.72,6.63,1.91s1.65.85,3.16,3.17c1,1.51.8,2.77,2,3.75s.66,4.85.46,7-.66,5.24-.66,5.24l1.59,3.95Z" style="fill:#fff;stroke:#263238;stroke-linecap:round;stroke-linejoin:round"></path><path d="M283.16,350.56s20.84-11.37,25-12.92l4.22-1.54s1.85-4.48,3.7-5c0,0-3.17-14-3.17-18.2V297.73l-.92-4s6.2-5.93,11.87-3.56l2.77,5.41a10.85,10.85,0,0,1,6.85,6.72c2.11,5.54,9,26,10.29,35.15s-60.66,52.94-60.66,52.94Z" style="fill:#999"></path><g style="clip-path:url(#freepik--clip-path-11--inject-327)"><path d="M321,361.19l-.78,1.22c-17,13.88-37,28-37,28V350.56l1-.53a25.62,25.62,0,0,1,4,.53c8.77,2.32,10,22.2,10,22.2C306.24,370.16,320.54,361.46,321,361.19Z" style="fill-opacity:0.7000000000000001;opacity:0.2;isolation:isolate"></path></g><path d="M283.16,350.56s20.84-11.37,25-12.92l4.22-1.54s1.85-4.48,3.7-5c0,0-3.17-14-3.17-18.2V297.73l-.92-4s6.2-5.93,11.87-3.56l2.77,5.41a10.85,10.85,0,0,1,6.85,6.72c2.11,5.54,9,26,10.29,35.15s-60.66,52.94-60.66,52.94Z" style="fill:none;stroke:#263238;stroke-linecap:round;stroke-linejoin:round"></path><path d="M296.48,357.79s2.13,12.28-7.24,26.32" style="fill:none;stroke:#263238;stroke-linecap:round;stroke-linejoin:round"></path><path d="M312.43,336.1s4.82-.8,8.58,1.54" style="fill:none;stroke:#263238;stroke-linecap:round;stroke-linejoin:round"></path><path d="M316.13,331.09s5.07-2,5.67-6.13" style="fill:none;stroke:#263238;stroke-linecap:round;stroke-linejoin:round"></path><path d="M316.72,298.65s5.74-3.69,10-3" style="fill:none;stroke:#263238;stroke-linecap:round;stroke-linejoin:round"></path><path d="M182.25,291.48l3.1,1.11a2.06,2.06,0,0,0,2.64-1.24h0l25.68-71.82s-.56-1.26-3.15-2.19a6,6,0,0,0-3.83-.3L181,288.85a2,2,0,0,0,1.14,2.59Z" style="fill:#263238"></path><path d="M206.69,217l-16.84,47.08a6,6,0,0,1,3.83.31c2.59.93,3.16,2.19,3.16,2.19l16.84-47.08s-.57-1.26-3.16-2.19A6,6,0,0,0,206.69,217Z" style="fill:#FFC100;stroke:#263238;stroke-linecap:round;stroke-linejoin:round"></path><path d="M195.83,253.89l-1.05,2.82" style="fill:none;stroke:#fff;stroke-linecap:round;stroke-linejoin:round"></path><path d="M208.86,218.93q-5.81,15.6-11.63,31.19" style="fill:none;stroke:#fff;stroke-linecap:round;stroke-linejoin:round"></path><path d="M186.5,295.48s2.48-8,4.56-9.26c2.41-1.42,4.13-4.09,3.63-5.88-.91-3.2,1.12-4.69-.78-5.57,0,0-3.58,4.11-4.06,3.18-3.35-6.6-1.26-10.29-1.26-10.29-4.32-2.11-4.26.72-6.63,1.91s-1.65.85-3.16,3.17c-1,1.51-.8,2.77-2,3.75s-.66,4.85-.46,7,.66,5.24.66,5.24l-1.59,3.95Z" style="fill:#fff;stroke:#263238;stroke-linecap:round;stroke-linejoin:round"></path><path d="M216.84,350.56S196,339.19,191.79,337.64l-4.22-1.54s-1.85-4.48-3.7-5c0,0,3.17-14,3.17-18.2V297.73l.92-4s-6.2-5.93-11.87-3.56l-2.77,5.41a10.85,10.85,0,0,0-6.85,6.72c-2.11,5.54-9,26-10.29,35.15s60.66,52.94,60.66,52.94Z" style="fill:#999"></path><g style="clip-path:url(#freepik--clip-path-12--inject-327)"><path d="M216.41,350.33l.43.23v39.87S190,371.45,172,355.87c29.41,18.46,28.35,12.8,28.35,12.8,2.64-13.32,8.3-18.11,8.3-18.11S211.61,350.46,216.41,350.33Z" style="fill-opacity:0.7000000000000001;opacity:0.2;isolation:isolate"></path></g><path d="M216.84,350.56S196,339.19,191.79,337.64l-4.22-1.54s-1.85-4.48-3.7-5c0,0,3.17-14,3.17-18.2V297.73l.92-4s-6.2-5.93-11.87-3.56l-2.77,5.41a10.85,10.85,0,0,0-6.85,6.72c-2.11,5.54-9,26-10.29,35.15s60.66,52.94,60.66,52.94Z" style="fill:none;stroke:#263238;stroke-linecap:round;stroke-linejoin:round"></path><path d="M177.4,295.54s7.21-.12,9.64,2.19" style="fill:none;stroke:#263238;stroke-linecap:round;stroke-linejoin:round"></path><path d="M183.87,331.09s-7.66,5.93-9.24,3.56,4.62-3.56,4.62-3.56" style="fill:none;stroke:#263238;stroke-linecap:round;stroke-linejoin:round"></path><path d="M187.57,336.1s.51,6.66,3.88,10" style="fill:none;stroke:#263238;stroke-linecap:round;stroke-linejoin:round"></path><path d="M197.28,368.67s8.32,13.69,13.94,17.72" style="fill:none;stroke:#263238;stroke-linecap:round;stroke-linejoin:round"></path><path d="M237.8,339a16.69,16.69,0,0,1-3.17,14.51s13.56,6.85,26.7,0c0,0-4-8.71-1.38-13.19C260,340.32,251.78,335.31,237.8,339Z" style="fill:#fff;stroke:#263238;stroke-linecap:round;stroke-linejoin:round"></path><path d="M269.87,318.13s-3.85-18-19.68-19.38-21.36,12-23.44,23L249.4,324Z" style="fill:#FFC100;stroke:#263238;stroke-linecap:round;stroke-linejoin:round"></path><path d="M268.41,316.8c2.37-.93,3.34,2.74,3.34,2.74s2.68,1.76,2.68,8.09c0,5.72-4.06,7.72-4.06,7.72s-1.78,3.77-4,1.31S265.47,317.94,268.41,316.8Z" style="fill:#FFC100;stroke:#263238;stroke-linecap:round;stroke-linejoin:round"></path><path d="M271.75,319.54s1.27,7.73-.89,12.73" style="fill:#FFC100;stroke:#263238;stroke-linecap:round;stroke-linejoin:round"></path><path d="M228.32,316.8c-2.37-.93-3.34,2.74-3.34,2.74s-2.67,1.76-2.67,8.09c0,5.72,4.05,7.72,4.05,7.72s1.79,3.77,4,1.31S231.27,317.94,228.32,316.8Z" style="fill:#FFC100;stroke:#263238;stroke-linecap:round;stroke-linejoin:round"></path><path d="M225,319.54s-1.27,7.73.89,12.73" style="fill:#FFC100;stroke:#263238;stroke-linecap:round;stroke-linejoin:round"></path><path d="M256,303.1s-5.72-4-10.18-3.36-.6,1.65-.6,1.65-7.52.42-8.21,1.71,0,1.28,0,1.28-4.56,2-5.61,4,1,1.56,1,1.56-4.15,5.15-4.45,8.31,1,1.78,1,1.78a42.14,42.14,0,0,0,1,14.24c1.88,6.73,3.26,7,3.16,8.8s2.28.9,2.28.9,1.06,2,2.61,2,3.93-1.58,3.93-1.58,3.29,3.66,5.76,3.16,3.17-3.36,3.17-3.36,2.17,4,3.75,3.41,1.39-3.31,1.39-3.31,1.78,2.18,3.26,2a1.58,1.58,0,0,0,1.39-1.68s1.68.79,2.17.39-.29-1.38.79-3.06,4.36-7.22,5.15-11.28c0,0,.38,1.58,1.08-1.28s-.79-9.87-.79-9.87.36,1.46,1,1.06-1.46-6.23-5.81-8.7c0,0,1.58.4,1.68-.59S263.25,302.41,256,303.1Z" style="fill:#263238"></path><path d="M227.9,354.56s6.51-3.43,21.13-4,21.83,4,21.83,4a44.42,44.42,0,0,1-20.4,6.59C239.12,361.68,227.9,354.56,227.9,354.56Z" style="fill:#999;stroke:#263238;stroke-linecap:round;stroke-linejoin:round"></path><path d="M207.37,343.15,229.15,353s4.75,2.29,18,2.87,25-5.31,25-5.31l19-6.12s5.88,29.11-2.78,60.76l3.29,45.36s-46.56,8.7-89.23,0l4.47-43.78S201.7,365.53,207.37,343.15Z" style="fill:#FFC100"></path><g style="clip-path:url(#freepik--clip-path-13--inject-327)"><path d="M292.36,383.45c-10.4,2.6-26.3,5.76-42.1,5.76-16.8,0-34.42-3.06-45.23-5.34-.3-6.54-.43-13.79-.15-20.83,9.81,5.72,25.91,12.73,45.05,12A93.57,93.57,0,0,0,293,362.39,154.25,154.25,0,0,1,292.36,383.45Z" style="fill:#fff;opacity:0.6000000000000001;isolation:isolate"></path><path d="M291.13,443.27c-15.59,3.15-46.26,6.94-88,.77l1.58-15.51a199.4,199.4,0,0,0,85.19-2.71Z" style="fill:#fff;opacity:0.6000000000000001;isolation:isolate"></path></g><path d="M229.15,353s15.7,8.8,25,8.18,14.47-5.31,14.47-5.31" style="fill:none;stroke:#263238;stroke-linecap:round;stroke-linejoin:round"></path><path d="M288.16,388.65s1.12,10.75.22,16.55" style="fill:none;stroke:#263238;stroke-linecap:round;stroke-linejoin:round"></path><path d="M206.75,405.91s.65-16.67,1.9-21.8" style="fill:none;stroke:#263238;stroke-linecap:round;stroke-linejoin:round"></path><path d="M214.79,410s31.6,21,57.33,1.39" style="fill:none;stroke:#263238;stroke-linecap:round;stroke-linejoin:round"></path><path d="M275.71,430.78s-22.42,4-41.08-7.32" style="fill:none;stroke:#263238;stroke-linecap:round;stroke-linejoin:round"></path><path d="M202.44,450.56l4.47-43.78s-5.21-41.25.46-63.63L229.15,353s4.75,2.29,18,2.87,25-5.31,25-5.31l19-6.12s5.88,29.11-2.78,60.76l3.29,45.36" style="fill:none;stroke:#263238;stroke-linecap:round;stroke-linejoin:round"></path><g style="opacity:0.4"><path d="M257.31,312.36a14.45,14.45,0,0,0-11.46-6.59" style="fill:none;stroke:#fff;stroke-linecap:round;stroke-linejoin:round"></path><path d="M255.07,314.08s-7.38.13-10,3.95" style="fill:none;stroke:#fff;stroke-linecap:round;stroke-linejoin:round"></path><path d="M256.39,316.05s-3,5.15-2.24,8.91" style="fill:none;stroke:#fff;stroke-linecap:round;stroke-linejoin:round"></path><path d="M259.56,316.05a13.25,13.25,0,0,1,5,4.46" style="fill:none;stroke:#fff;stroke-linecap:round;stroke-linejoin:round"></path><path d="M260.08,312.36s0-3.91,3.17-3.29" style="fill:none;stroke:#fff;stroke-linecap:round;stroke-linejoin:round"></path></g></g></g></svg>